<svg width="1024" height="1024" viewBox="0 0 1024 1024" fill="none" xmlns="http://www.w3.org/2000/svg">
<path d="M631.613 207.301C635.077 208.135 635 208 638.5 209C642 210 642.043 209.55 642.043 210.23C648.273 211.013 654.24 212.924 660.244 214.701C662.295 215.307 664.349 215.903 666.404 216.498C673.297 218.509 680.09 219.891 686.785 222.5C689.586 223.429 692.565 224.994 695 226C697.435 227.006 699.873 228.005 702.312 229L704.404 229.867C706.638 230.774 710.289 232.61 713.249 233.885C713.434 233.925 713.706 234.05 714.007 234.205C714.584 234.444 715.125 234.653 715.611 234.821C715.741 234.864 715.87 234.907 716 234.95C721.704 236.853 727.149 239.162 732.625 241.687L735.718 243.111C768.237 258.277 800.065 275.62 829.051 296.848C831.648 298.743 834.279 300.567 836.938 302.375C843.273 306.793 849.233 311.693 855.225 316.562C856.794 317.833 858.371 319.093 859.949 320.352C866.216 325.384 872.123 330.728 877.992 336.211C880.388 338.445 882.827 340.616 885.312 342.75C892.107 348.645 898.186 355.147 904 362L906.25 364.562C909.929 369.687 912.335 375.619 912 382C909.205 394.61 898.145 404.229 889.361 413.01C887.924 414.451 886.504 415.908 885.084 417.365C878.209 424.269 872.055 429.327 862.062 430.437C853.11 430.278 845.866 425.216 839.75 419.062C838.166 417.376 836.582 415.688 835 414C832.404 411.583 829.696 409.304 827 407C825.909 406.047 824.819 405.092 823.73 404.137C803.913 386.78 783.32 371.019 761 357L759.224 355.88C738.751 343.003 717.424 331.455 695.177 321.951C692.792 320.909 690.432 319.816 688.071 318.723L687.75 318.574C628.382 291.533 562.653 283.09 498 284L495.031 284.038C413.716 285.405 328.959 311.659 262 358C260.106 359.252 258.21 360.502 256.313 361.75C243.477 370.324 230.997 379.285 219 389L216.953 390.649C208.284 397.643 199.862 404.809 191.746 412.437C189.517 414.518 187.265 416.532 184.938 418.5C182.07 420.847 182.07 420.847 180 423.125C174.349 428.422 168.038 430.415 160.422 430.266C151.261 429.261 145.382 423.082 139 417C136.493 414.791 133.443 411.542 130.844 409.185C130.763 409.117 130.65 409.016 130.5 408.876C123.28 404.71 114.289 391.928 112 384C110.878 376.29 113.794 369.987 118.305 363.879C128.911 350.877 141.244 338.872 154 328L156.949 325.48C163.594 319.916 170.361 314.542 177.274 309.314C179.014 307.989 180.74 306.646 182.465 305.301C203.07 289.363 225.511 276.062 248 263C249.416 262.169 250.831 261.337 252.246 260.504C260.648 255.612 269.238 251.202 278 247L280.584 245.754C297.039 237.87 313.835 231.172 331 225L334.568 223.707C417.657 193.889 509.253 188.178 631.613 207.301Z" fill="#E8E9E8"/>
<path d="M544.972 358.738C547.742 358.925 550.513 359.081 553.286 359.219C560.097 359.568 566.419 360.105 573 362C575.079 362.436 577.161 362.855 579.246 363.262C635.126 374.304 686.547 395.775 733 429C733.703 429.497 734.405 429.995 735.129 430.507C737.259 432.017 739.381 433.537 741.5 435.062C742.154 435.528 742.808 435.994 743.482 436.473C745.026 437.599 746.519 438.793 748 440C748 440.66 753.196 444.32 753.196 445C753.733 445.229 749.075 442.459 749.629 442.695C752.716 444.394 755.279 446.587 757.938 448.875C758.502 449.356 759.066 449.837 759.647 450.333C764.38 454.399 768.98 458.603 773.536 462.866C776.206 465.363 778.899 467.776 781.75 470.062C789.546 476.712 795.921 484.822 798 495C798.484 502.13 795.339 508.134 790.957 513.504C788.046 516.748 785.047 519.884 782 523C781.25 523.77 780.501 524.54 779.729 525.333C777.224 527.898 774.708 530.451 772.188 533C770.969 534.238 770.969 534.238 769.726 535.501C763.285 541.951 757.352 547.777 747.684 548.07C734.915 547.391 727.849 540.222 719.445 531.496C715.796 527.731 711.869 524.442 707.754 521.195C705.269 519.215 702.867 517.162 700.473 515.073C661.465 481.239 610.797 458.284 560 450C559.005 449.838 558.01 449.675 556.985 449.508C529.617 445.292 499.399 444.619 472 449C470.88 449.178 469.76 449.355 468.606 449.539C419.441 457.635 371.242 476.857 332 508C330.853 508.883 329.704 509.764 328.555 510.645C321.766 515.871 315.318 521.293 309.109 527.199C307 529 310 527.688 308 527.688C308 528.348 305 530.32 305 531C303.172 532.842 301.192 534.457 299.207 536.129C297.862 537.269 296.54 538.438 295.262 539.652C290.084 544.508 284.289 547.869 277.055 548.09C272.553 547.76 268.967 547.232 265 545C265 545 267.84 544.32 267.5 545C267.244 544.407 265.523 545.523 265 545C263.5 543.5 260.531 541.521 258.395 539.77C253.908 535.973 249.802 531.88 245.688 527.688C244.298 526.272 242.906 524.86 241.512 523.449C240.908 522.834 240.304 522.219 239.682 521.585C237.883 519.802 238 520 235 517.5C233.5 516 235 517.5 231.5 513.5C229 511 230 512 229 511C227 506.5 227 508 226.5 505C226.17 504.34 226.34 503.68 226 503C225.727 500.531 225.727 500.531 225.625 497.5C225.552 496.03 225.552 496.03 225.477 494.531C227.107 483.534 234.694 476.608 242.309 469.204C244.113 467.45 245.897 465.677 247.68 463.9C254.482 457.165 261.479 450.931 269 445C270.232 443.988 271.461 442.972 272.688 441.953C285.803 431.198 299.887 421.856 314.215 412.805C315.876 411.729 317.513 410.613 319.094 409.422C327.893 402.858 338.781 398.705 348.69 394.083C350.751 393.117 352.805 392.137 354.855 391.148C365.047 386.281 375.434 381.988 386 378C386.79 377.701 387.58 377.402 388.395 377.094C438.656 358.423 491.974 355.103 544.972 358.738Z" fill="#E8E9E8"/>
<path d="M515.875 519.687C516.748 519.684 517.621 519.68 518.52 519.677C527.589 519.657 536.158 519.779 545 522C547.582 522.422 550.166 522.839 552.75 523.25C566.716 525.627 580.849 529.101 593.758 535.02C595.898 536.037 593 534.676 597.887 536.436C600.155 537.041 601.981 537.907 604.055 539.004C604.827 539.411 605.6 539.817 606.396 540.237C607.214 540.674 608.032 541.112 608.875 541.562C609.722 542.014 610.569 542.465 611.442 542.929C613.965 544.279 616.483 545.638 619 547C619.681 547.366 620.362 547.732 621.063 548.109C629.62 552.736 637.381 557.961 645 564C645.922 564.728 646.843 565.457 647.793 566.207C650.204 568.127 652.604 570.061 655 572C655.919 572.695 656.838 573.39 657.785 574.105C658.516 574.731 659.247 575.356 660 576C660 576.66 663.799 579.32 663.799 580C664.371 580.249 661.145 578.498 661.734 578.754C671.275 584.001 680.964 596.562 684 607C684.904 613.937 684.028 619.256 680 625C677.211 628.538 674.14 631.776 671 635C670.362 635.658 669.725 636.316 669.068 636.994C666.888 639.235 664.696 641.463 662.5 643.687C661.8 644.4 661.101 645.113 660.38 645.847C645.328 660.92 645.328 660.92 634.559 661.023C625.371 660.49 618.95 656.417 612.25 650.375C611.025 649.303 609.8 648.231 608.574 647.16C606.86 645.646 605.147 644.13 603.436 642.613C595.501 635.615 587.234 630.079 578 625C577.409 624.674 576.819 624.347 576.21 624.011C544.527 606.754 505.567 603.654 471.045 613.561C448.892 620.272 430.14 632.356 413.227 647.969C406.28 654.306 399.155 660.217 389.562 661.437C379.05 660.146 373.293 656.333 365.89 648.878C363.703 646.705 361.464 644.591 359.223 642.473C357.522 640.837 355.823 639.201 354.125 637.562C353.316 636.801 352.507 636.039 351.674 635.254C345.124 628.819 339.219 620.923 338.25 611.5C339.253 599.651 348.087 590.97 356 583C356.694 582.269 357.387 581.538 358.102 580.785C365.835 572.75 374.714 566.071 383.785 559.629C386.056 558.045 386.056 558.045 388 556C391.904 553.506 395.956 551.258 400 549C400.694 548.612 401.387 548.224 402.102 547.825C419.63 538.112 437.529 530.773 457 526C458.119 525.715 459.238 525.43 460.391 525.137C463.914 524.307 467.435 523.629 471 523C471.757 522.863 472.515 522.726 473.295 522.585C487.461 520.133 501.536 519.706 515.875 519.687Z" fill="#E8E9E8"/>
<path d="M507.199 678.301C507.793 678.862 509.888 680.557 510.5 681.135C510.5 681.795 509 681.32 509 682C512.737 679.94 515.87 677.512 519.111 674.773C531.917 664.024 544.342 658.761 561.121 659.055C572.744 660.348 586.355 667.078 594 676C599.569 683.108 604.339 690.283 607 699C607.223 699.713 607.446 700.426 607.676 701.16C611.32 714.819 608.837 730.079 602.438 742.563C596.48 752.556 589.505 762.049 581 770C580.67 770.66 580.34 771.32 580 772C579.34 772 581.68 770 581 770C580.749 770.576 579.258 772.407 579 773C577.591 775.562 574.221 778.022 572.148 780.082C571.379 780.85 570.609 781.617 569.816 782.408C569.011 783.202 568.205 783.995 567.375 784.813C566.593 785.594 565.81 786.376 565.004 787.182C560.698 791.456 556.298 795.556 551.702 799.514C549.706 801.257 547.84 803.094 546 805C524.159 827.096 524.159 827.096 512.391 827.992C504.11 828.019 498.501 824.885 492 820C490.88 819.225 490.88 819.225 489.738 818.434C489.165 817.961 488.591 817.487 488 817C488 816.34 487.5 816.68 487.5 816C486.918 815.74 487.871 817.5 488.606 817.5C486.221 816.207 482.197 811.498 480.242 809.621C479.539 808.951 478.836 808.282 478.111 807.592C477.373 806.881 476.635 806.17 475.875 805.438C474.343 803.977 472.811 802.517 471.277 801.059C470.54 800.356 469.802 799.653 469.042 798.929C466.547 796.572 464.005 794.279 461.438 792C452.265 783.803 452.265 783.803 449 780C449 779.34 448.5 779.68 448.5 779C447.51 778.67 447.02 777.34 446 777C444.527 775.574 444.527 775.574 442.938 773.688C442.326 772.963 441.715 772.239 441.086 771.492C440.053 770.259 440.053 770.259 439 769C438.209 768.095 437.417 767.19 436.602 766.258C424.352 752.048 413.541 735.578 413.688 716.25C413.693 715.464 413.699 714.677 413.705 713.867C414.029 698.172 420.358 685.423 431 674C455.939 650.865 483.019 659.159 507.199 678.301Z" fill="#E8E9E8"/>
<path d="M524 447C528 448 528 448 528 448L524 447Z" fill="#40A06A"/>
<path d="M536 285C540 286 540 286 540 286L536 285Z" fill="#3DA169"/>
<path d="M577 528C580 529 580 529 580 529L577 528Z" fill="#409F68"/>
<path d="M600 461C603 462 603 462 603 462L600 461Z" fill="#40A068"/>
<path d="M288 240C291 241 291 241 291 241L288 240Z" fill="#439D67"/>
<path d="M368 211C371 212 371 212 371 212L368 211Z" fill="#44A068"/>
<path d="M571 622C573 623 573 623 573 623L571 622Z" fill="#409B64"/>
<path d="M452 621C454 622 454 622 454 622L452 621Z" fill="#3F9E63"/>
<path d="M337 616C339 617 339 617 339 617L337 616Z" fill="#439962"/>
<path d="M282 548C284 549 284 549 284 549L282 548Z" fill="#479F68"/>
<path d="M616 466C618 467 618 467 618 467L616 466Z" fill="#3E9E68"/>
<path d="M576 454C578 455 578 455 578 455L576 454Z" fill="#41A36B"/>
<path d="M500 447C502 448 502 448 502 448L500 447Z" fill="#41A169"/>
<path d="M494 447C496 448 496 448 496 448L494 447Z" fill="#429F68"/>
<path d="M164 431C166 432 166 432 166 432L164 431Z" fill="#479E66"/>
<path d="M155 430C157 431 157 431 157 431L155 430Z" fill="#469B66"/>
<path d="M655 384C657 385 657 385 657 385L655 384Z" fill="#3F9E68"/>
<path d="M386 376C388 377 388 377 388 377L386 376Z" fill="#3F9F68"/>
<path d="M614 368C616 369 616 369 616 369L614 368Z" fill="#3FA16B"/>
<path d="M569 360C571 361 571 361 571 361L569 360Z" fill="#42A16A"/>
<path d="M449 360C451 361 451 361 451 361L449 360Z" fill="#41A168"/>
<path d="M460 287C462 288 462 288 462 288L460 287Z" fill="#44A46F"/>
<path d="M554 286C556 287 556 287 556 287L554 286Z" fill="#40A26A"/>
<path d="M475 286C477 287 477 287 477 287L475 286Z" fill="#3FA26A"/>
<path d="M489 285C491 286 491 286 491 286L489 285Z" fill="#3FA36A"/>
<path d="M764 256C766 257 766 257 766 257L764 256Z" fill="#409A65"/>
<path d="M272 248C274 249 274 249 274 249L272 248Z" fill="#429B66"/>
<path d="M598 200C600 201 600 201 600 201L598 200Z" fill="#419A65"/>
</svg>
